<?xml version="1.0" standalone="no"?>
<!DOCTYPE svg PUBLIC "-//W3C//DTD SVG 20010904//EN"
 "http://www.w3.org/TR/2001/REC-SVG-20010904/DTD/svg10.dtd">
<svg version="1.0" xmlns="http://www.w3.org/2000/svg"
 width="700.000000pt" height="700.000000pt" viewBox="0 0 700.000000 700.000000"
 preserveAspectRatio="xMidYMid meet">
<metadata>
Created by potrace 1.14, written by Peter Selinger 2001-2017
</metadata>
<g transform="translate(0.000000,700.000000) scale(0.100000,-0.100000)"
fill="#000000" stroke="none">
<path d="M3269 6956 c-2 -2 -44 -6 -94 -10 -49 -3 -101 -8 -115 -10 -14 -2
-46 -7 -71 -10 -506 -69 -1030 -273 -1469 -570 -352 -238 -724 -613 -940 -946
-5 -8 -22 -33 -36 -55 -126 -190 -274 -495 -356 -735 -76 -224 -142 -505 -163
-700 -3 -25 -10 -81 -14 -125 -9 -81 -7 -570 2 -635 3 -19 8 -60 12 -91 3 -31
8 -67 10 -80 3 -13 7 -41 11 -64 37 -259 156 -639 285 -910 98 -208 284 -513
381 -625 7 -8 26 -32 41 -53 77 -105 289 -328 422 -442 38 -33 79 -68 90 -78
118 -107 387 -285 595 -394 355 -187 817 -335 1155 -369 33 -3 63 -8 66 -10
42 -25 665 -25 829 1 14 2 45 7 70 10 208 28 566 116 705 174 11 5 63 26 115
46 579 230 1078 611 1476 1125 314 406 564 972 649 1470 9 52 18 104 20 116 1
11 6 52 10 90 4 38 10 78 12 89 3 11 7 133 9 270 3 225 -3 361 -21 487 -4 24
-8 59 -11 78 -3 19 -16 94 -30 165 -243 1241 -1164 2261 -2384 2638 -142 44
-376 100 -475 113 -27 3 -52 8 -55 9 -3 2 -37 6 -75 10 -39 4 -101 10 -140 15
-71 7 -508 13 -516 6z"/>
</g>
</svg>
